<?xml version="1.0"?>
<svg width="640" height="480" xmlns="http://www.w3.org/2000/svg" xmlns:svg="http://www.w3.org/2000/svg" xmlns:xlink="http://www.w3.org/1999/xlink">
 <!-- Created with SVG-edit - https://github.com/SVG-Edit/svgedit-->
 <defs>
  <symbol height="210px" id="svg_4" viewBox="0 0 208 210" width="208px" x="0px" xmlns="http://www.w3.org/2000/svg" xmlns:xlink="http://www.w3.org/1999/xlink" y="0px">
   <g id="svg_2">
    <path d="m104,14.091c-50,0 -90.909,40.909 -90.909,90.909s40.909,90.909 90.909,90.909s90.909,-40.909 90.909,-90.909s-40.909,-90.909 -90.909,-90.909m0,122.727c-17.727,0 -31.818,-14.09 -31.818,-31.818c0,-17.727 14.092,-31.818 31.818,-31.818c17.729,0 31.818,14.092 31.818,31.818c0,17.729 -14.089,31.818 -31.818,31.818" fill="#F6B545"/>
    <path d="m104,205c-55,0 -100,-45.002 -100,-100c0,-55 45,-100 100,-100c54.998,0 100,45 100,100c0,54.998 -45.002,100 -100,100m0,-190.909c-50,0 -90.909,40.909 -90.909,90.909s40.909,90.909 90.909,90.909s90.909,-40.909 90.909,-90.909s-40.909,-90.909 -90.909,-90.909m0,122.727c-17.727,0 -31.818,-14.09 -31.818,-31.818c0,-17.727 14.092,-31.818 31.818,-31.818c17.729,0 31.818,14.092 31.818,31.818c0,17.729 -14.089,31.818 -31.818,31.818m0,-54.546c-12.727,0 -22.728,10.001 -22.728,22.728s10.001,22.728 22.728,22.728s22.728,-10.001 22.728,-22.728s-10.001,-22.728 -22.728,-22.728" fill="#014463"/>
    <path d="m148.997,25.91c17.276,16.819 27.73,39.999 27.73,65.454c0,50 -40.909,90.909 -90.909,90.909c-16.364,0 -31.818,-4.545 -45,-11.816c16.362,15.452 38.637,25.453 63.182,25.453c50,0 90.909,-40.909 90.909,-90.909c0,-33.637 -18.639,-63.183 -45.912,-79.091" fill="#D37300"/>
    <path d="m171.729,113.639c3.179,-1.82 4.999,-5.003 4.999,-8.639s-1.82,-6.818 -4.999,-8.636c-7.728,-5 -10.91,-15.001 -7.728,-23.183c1.362,-3.183 0.91,-6.818 -1.362,-9.546c-2.273,-3.18 -5.456,-4.545 -9.549,-4.545c-9.091,0.455 -17.725,-5.453 -19.997,-14.544c-0.91,-3.638 -3.64,-5.911 -6.818,-7.273c-3.64,-1.365 -7.275,-0.455 -10.001,1.817c-7.275,5.908 -17.729,5.908 -25,0c-2.728,-2.272 -6.365,-2.728 -10.001,-1.817c-3.635,0.907 -5.908,3.635 -6.818,7.273c-2.273,8.636 -10.909,14.999 -20,14.544c-3.638,0 -7.273,1.365 -9.546,4.545c-2.273,2.728 -2.728,6.363 -1.363,9.546c3.18,8.636 0,18.182 -7.728,23.183c-2.728,1.817 -4.546,5 -4.546,8.636s1.818,6.818 5.001,8.639c7.726,4.998 10.908,14.998 7.726,23.18c-1.363,3.183 -0.908,6.818 1.365,9.543c2.272,3.184 5.453,4.546 9.091,4.546l0.908,0c8.638,0 16.819,5.913 19.092,14.546c0.91,3.636 3.635,5.908 6.818,7.275c3.636,1.363 7.273,0.453 10.001,-1.819c7.271,-5.908 17.725,-5.908 25,0c2.726,2.272 6.818,3.183 10.001,1.819c3.636,-0.909 5.908,-3.64 6.818,-7.275c2.272,-8.633 10.906,-14.998 19.997,-14.546c3.636,0.457 7.275,-1.362 9.549,-4.546c2.272,-2.725 2.725,-6.36 1.362,-9.543c-3.183,-8.182 0,-18.182 7.728,-23.18m-67.729,23.179c-17.727,0 -31.818,-14.09 -31.818,-31.818c0,-17.727 14.092,-31.818 31.818,-31.818c17.729,0 31.818,14.092 31.818,31.818c0,17.729 -14.089,31.818 -31.818,31.818" fill="#ECEFF9"/>
    <path d="m84.908,182.272c-2.272,0 -4.09,-0.452 -6.363,-0.909c-6.363,-2.273 -10.909,-7.271 -12.729,-13.637c-1.363,-4.546 -5.908,-8.182 -10.909,-7.724c-6.818,0.452 -13.181,-2.73 -17.272,-8.186c-3.638,-5.451 -4.545,-12.27 -2.272,-18.182c1.817,-4.546 0,-9.544 -4.091,-12.27c-5.455,-3.64 -9.091,-9.548 -9.091,-16.366s3.181,-12.727 9.091,-16.364c4.091,-2.726 5.908,-7.726 4.091,-12.271c-2.273,-5.91 -1.365,-12.729 2.272,-18.182c4.092,-5.453 10.455,-8.634 17.273,-8.181c5,0.455 9.546,-3.18 10.909,-7.726c1.82,-6.363 6.365,-11.363 12.729,-13.636c6.363,-1.818 13.637,-0.91 18.637,3.635c4.091,3.183 9.544,3.183 13.637,0c5.455,-4.09 12.273,-5.453 18.635,-3.18c6.365,2.273 10.91,7.271 12.727,13.636c1.367,4.545 5.912,7.726 10.91,7.726c6.818,-0.455 13.184,2.728 17.271,8.183c3.636,5.453 4.546,12.271 2.273,18.182c-1.815,4.546 0,9.544 4.093,12.271c5.455,3.638 9.091,9.546 9.091,16.366c0,6.818 -3.183,12.727 -9.091,16.362c-4.093,2.726 -5.908,7.728 -4.093,12.273c2.272,5.908 1.362,12.727 -2.273,18.182c-4.088,5.456 -10.453,8.634 -17.271,8.181c-4.998,-0.452 -9.543,3.184 -10.91,7.729c-1.816,6.361 -6.361,11.363 -12.727,13.637c-6.361,2.272 -13.18,0.91 -18.635,-3.184c-4.093,-3.182 -9.546,-3.182 -13.637,0c-3.639,2.273 -7.729,3.635 -12.275,3.635m-29.545,-31.36c8.636,0 16.819,5.908 19.092,14.541c0.908,3.641 3.635,5.913 6.818,7.275c3.636,1.363 7.271,0.453 9.999,-1.819c7.273,-5.908 17.727,-5.908 25.002,0c2.726,2.272 6.818,3.183 9.996,1.819c3.641,-0.909 5.913,-3.635 6.818,-7.275c2.273,-8.633 10.911,-14.998 20.002,-14.541c3.636,0.452 7.271,-1.367 9.544,-4.546c2.272,-2.729 2.729,-6.365 1.367,-9.548c-3.183,-8.634 0,-18.182 7.724,-23.18c3.183,-1.82 5.003,-5.003 5.003,-8.639s-1.82,-6.818 -5.003,-8.636c-7.724,-5 -10.906,-14.999 -7.724,-23.183c1.362,-3.18 0.905,-6.818 -1.367,-9.546c-2.272,-3.18 -5.451,-4.545 -9.544,-4.545c-9.091,0.455 -17.729,-5.453 -20.002,-14.544c-0.905,-3.638 -3.635,-5.911 -6.818,-7.273c-3.635,-1.363 -7.271,-0.455 -9.996,1.817c-7.275,5.911 -17.729,5.911 -25.002,0c-2.728,-2.272 -6.363,-2.728 -9.999,-1.817c-3.638,0.91 -5.91,3.635 -6.818,7.273c-2.273,8.636 -10.911,14.999 -20.002,14.544c-3.635,0 -7.271,1.365 -9.543,4.545c-2.273,2.728 -2.728,6.366 -1.365,9.546c3.183,8.636 0,18.182 -7.726,23.183c-2.728,1.817 -4.546,5 -4.546,8.636s1.818,6.818 4.999,8.639c7.728,4.998 10.911,14.998 7.728,23.18c-1.363,3.183 -0.91,6.818 1.363,9.548c2.273,3.179 5.456,4.546 9.091,4.546l0.909,0z" fill="#014463"/>
    <path d="m72.182,105c0,-17.727 14.092,-31.818 31.818,-31.818c7.729,0 14.547,2.728 20.002,7.273c-5.913,-7.273 -14.547,-11.819 -24.547,-11.819c-17.727,0 -31.818,14.091 -31.818,31.818c0,10 4.545,18.634 11.819,24.547c-4.546,-5.454 -7.274,-12.272 -7.274,-20.001" fill="#93B4D8"/>
    <g id="svg_3">
     <path d="m128.658,55.238c-1.563,-2.14 -3.802,-4.385 -5.118,-6.897c-0.054,-0.102 -0.124,-0.2 -0.201,-0.295c-0.662,-1.103 -2.398,-1.667 -3.303,-0.51c-0.3,0.383 -0.535,0.773 -0.622,1.219c-0.182,0.613 -0.08,1.316 0.199,1.882c0.582,1.18 1.462,2.23 2.244,3.281c0.483,0.649 0.965,1.298 1.436,1.958c0.18,0.251 0.353,0.508 0.525,0.765c0.092,0.123 0.16,0.258 0.223,0.396c0.012,0.031 0.026,0.072 0.048,0.128c1.29,3.656 6.586,0.831 4.569,-1.927z" fill="#93B4D8"/>
     <path d="m105.598,50.831c-3.614,-1.17 -7.355,-1.931 -11.016,-2.94c-2.726,-0.751 -3.871,3.444 -1.163,4.219c3.655,1.046 7.365,1.889 10.984,3.06c2.768,0.895 3.944,-3.45 1.195,-4.339z" fill="#C35B26"/>
     <path d="m77.078,59c-0.081,-2.696 -3.99,-2.66 -4.156,0c-0.22,3.52 -1.299,6.967 -1.297,10.5c0.002,3.073 4.636,3.05 4.75,0c0.131,-3.517 0.809,-6.975 0.703,-10.5z" fill="#C3FF26"/>
     <path d="m148.866,76.202c-3.275,0.442 -6.599,-0.049 -9.776,-0.842c-2.824,-0.705 -3.813,3.284 -1.18,4.279c3.724,1.407 8.307,1.751 12.224,1.158c3.05,-0.462 1.719,-4.998 -1.268,-4.595z" fill="#C30026"/>
     <path d="m74.639,142.75c-1.542,-3.203 -1.896,-6.867 -2.582,-10.317c-0.467,-2.349 -4.391,-1.83 -4.189,0.567c0.349,4.158 0.752,8.409 2.494,12.25c1.308,2.886 5.663,0.381 4.277,-2.5z" fill="#FFBC26"/>
     <path d="m159.636,95.695c-3.499,-1.175 -6.896,-2.461 -10.636,-2.523c-3.012,-0.05 -2.988,4.54 0,4.656c3.265,0.127 6.313,1.428 9.364,2.477c2.921,1.004 4.182,-3.633 1.272,-4.61z" fill="#00BC26"/>
     <path d="m57.859,88.859c-2.282,2.224 -4.768,4.227 -7.05,6.45c-2.21,2.153 1.202,5.567 3.381,3.381c2.248,-2.256 4.702,-4.294 6.95,-6.55c2.116,-2.122 -1.137,-5.369 -3.281,-3.281z" fill="#00BCFF"/>
     <path d="m146.207,106.392c-0.925,-2.867 -4.861,-1.648 -4.414,1.217c0.517,3.316 -0.687,6.483 -1.279,9.706c-0.606,3.301 4.538,4.6 4.973,1.371c0.54,-4.028 2.018,-8.271 0.72,-12.294z" fill="#FF94FF"/>
     <path d="m62.5,110.781c-2.673,-0.32 -5.259,-1.48 -7.779,-2.361c-1.887,-0.66 -4.667,-1.672 -6.262,0.039c-0.994,1.066 -0.753,2.633 0.441,3.423c0.727,0.48 1.415,0.417 2.224,0.564c1.224,0.222 2.42,0.678 3.593,1.076c2.522,0.855 5.079,1.808 7.783,1.696c2.927,-0.12 2.779,-4.104 0,-4.437z" fill="#B4946E"/>
     <g>
      <path d="m155.308,136.044c-3.544,-1.521 -6.457,-4.162 -10.179,-5.326c-2.524,-0.79 -4.31,3.26 -1.823,4.326c3.177,1.363 5.882,3.519 8.911,5.151c0.788,0.425 1.603,0.808 2.403,1.209c0.318,0.16 0.646,0.305 0.968,0.459c0.11,0.053 0.593,0.219 0.974,0.348l0,-0.118c1.297,0.413 2.802,0.018 3.125,-1.642c0.548,-2.818 -2.37,-3.545 -4.379,-4.407z" fill="#B4DF6E"/>
      <path d="m156.562,142.211l0,0.015c0.802,0.254 0.482,0.149 0,-0.015z" fill="#B4DF6E"/>
     </g>
     <path d="m128.086,146.876c-4.86,-1.359 -9.979,-2.21 -14.915,-3.31c-3.169,-0.705 -4.517,4.14 -1.342,4.867c5.021,1.149 10.476,3.024 15.671,2.77c2.449,-0.12 3.043,-3.64 0.586,-4.327z" fill="#B43DFF"/>
     <path d="m97.918,146.891c-3.524,1.332 -6.773,3.346 -10.149,5.005c-2.809,1.381 -0.336,5.659 2.461,4.209c3.157,-1.637 6.387,-3.284 9.374,-5.216c1.988,-1.286 0.734,-4.913 -1.686,-3.998z" fill="#00CEFF"/>
    </g>
   </g>
  </symbol>
  <symbol height="211px" id="svg_9" viewBox="0 0 326 211" width="326px" x="0px" xmlns="http://www.w3.org/2000/svg" xmlns:xlink="http://www.w3.org/1999/xlink" y="0px">
   <g id="svg_8">
    <path d="m298.713,156l-271.428,0c-4.286,0 -7.143,2.86 -7.143,7.143c0,15.716 12.855,28.571 28.571,28.571l228.571,0c15.715,0 28.572,-12.855 28.572,-28.571c0.001,-4.283 -2.86,-7.143 -7.143,-7.143" fill="#F6B545"/>
    <path d="m277.285,206l-228.571,0c-23.57,0 -42.857,-19.287 -42.857,-42.857c0,-12.144 9.285,-21.429 21.429,-21.429l271.428,0c12.145,0 21.43,9.285 21.43,21.429c-0.001,23.57 -19.289,42.857 -42.859,42.857m-250,-50c-4.286,0 -7.143,2.86 -7.143,7.143c0,15.716 12.855,28.571 28.571,28.571l228.571,0c15.715,0 28.572,-12.855 28.572,-28.571c0,-4.282 -2.861,-7.143 -7.145,-7.143l-271.426,0z" fill="#014463"/>
    <path d="m298.713,156l-7.143,0c0,15.716 -12.855,28.571 -28.57,28.571l-228.572,0c-1.43,0 -3.572,0 -5.001,-0.711c5.001,4.994 12.145,7.854 19.287,7.854l228.571,0c15.715,0 28.572,-12.855 28.572,-28.571c0,-4.283 -2.861,-7.143 -7.144,-7.143" fill="#AD7B3E"/>
    <path d="m27.285,70.286l271.428,0c4.283,0 7.145,-2.856 7.145,-7.143c0,-23.57 -19.287,-42.857 -42.857,-42.857l-200.001,0c-23.57,0 -42.857,19.287 -42.857,42.857c0,4.286 2.856,7.143 7.142,7.143" fill="#F6B545"/>
    <path d="m298.713,84.571l-271.428,0c-12.144,0 -21.429,-9.284 -21.429,-21.428c0,-31.428 25.716,-57.143 57.144,-57.143l200,0c31.432,0 57.143,25.715 57.143,57.143c0,12.144 -9.286,21.428 -21.43,21.428m-235.713,-64.285c-23.57,0 -42.857,19.287 -42.857,42.857c0,4.286 2.856,7.143 7.143,7.143l271.428,0c4.283,0 7.145,-2.856 7.145,-7.143c0,-23.57 -19.287,-42.857 -42.857,-42.857l-200.002,0z" fill="#014463"/>
    <path d="m274.432,21.715c9.996,7.859 17.138,19.999 17.138,34.285c0,4.287 -2.852,7.143 -7.143,7.143l-264.284,0c0,4.286 2.856,7.143 7.143,7.143l271.428,0c4.291,0 7.145,-2.856 7.145,-7.143c-0.002,-19.284 -13.57,-36.426 -31.427,-41.428" fill="#BC6906"/>
    <path d="m152.285,106l-114.285,0c-5.713,0 -10.715,5.001 -10.715,10.714s5.002,10.715 10.715,10.715l114.285,0c5.713,0 10.715,-5.002 10.715,-10.715s-5.002,-10.714 -10.715,-10.714" fill="#EF3E2B"/>
    <path d="m152.285,141.714l-114.285,0c-13.571,0 -25,-11.426 -25,-25c0,-13.57 11.429,-25 25,-25l114.285,0c13.574,0 25,11.429 25,25c0,13.574 -11.426,25 -25,25m-114.285,-35.714c-5.713,0 -10.715,5.001 -10.715,10.714s5.002,10.715 10.715,10.715l114.285,0c5.713,0 10.715,-5.002 10.715,-10.715s-5.002,-10.714 -10.715,-10.714l-114.285,0z" fill="#004463"/>
    <path d="m30.856,91.714l264.286,0c2.141,0 3.57,-1.43 3.57,-3.571c0,-2.142 -1.43,-3.572 -3.57,-3.572l-264.286,0c-2.141,0 -3.571,1.43 -3.571,3.572c0,2.141 1.43,3.571 3.571,3.571" fill="#90C962"/>
    <path d="m295.143,106l-264.287,0c-9.999,0 -17.856,-7.858 -17.856,-17.857c0,-10 7.857,-17.857 17.856,-17.857l264.286,0c10.002,0 17.857,7.858 17.857,17.857c0.001,9.999 -7.854,17.857 -17.856,17.857m-264.287,-21.429c-2.141,0 -3.571,1.43 -3.571,3.572c0,2.141 1.43,3.571 3.571,3.571l264.286,0c2.141,0 3.57,-1.43 3.57,-3.571c0,-2.142 -1.43,-3.572 -3.57,-3.572l-264.286,0z" fill="#014463"/>
    <path d="m70.143,63.143c-2.142,0 -3.571,-0.715 -5.001,-2.142c-2.856,-2.86 -2.856,-7.143 0,-10.003l21.428,-21.428c2.86,-2.856 7.143,-2.856 10.002,0c2.856,2.86 2.856,7.143 0,10.003l-21.428,21.428c-1.43,1.427 -2.86,2.142 -5.001,2.142" fill="#014463"/>
    <path d="m113,63.143c-2.142,0 -3.572,-0.715 -5.002,-2.142c-2.856,-2.86 -2.856,-7.143 0,-10.003l21.429,-21.429c2.86,-2.856 7.143,-2.856 10.003,0c2.856,2.86 2.856,7.143 0,10.003l-21.429,21.429c-1.43,1.427 -2.86,2.142 -5.001,2.142" fill="#014463"/>
    <path d="m155.857,63.143c-2.142,0 -3.572,-0.715 -5.001,-2.142c-2.856,-2.86 -2.856,-7.143 0,-10.003l21.428,-21.429c2.861,-2.856 7.143,-2.856 10.004,0c2.852,2.86 2.852,7.143 0,10.003l-21.429,21.429c-1.431,1.427 -2.861,2.142 -5.002,2.142" fill="#014463"/>
    <path d="m198.713,63.143c-2.141,0 -3.57,-0.715 -5,-2.142c-2.854,-2.86 -2.854,-7.143 0,-10.003l21.428,-21.429c2.859,-2.856 7.143,-2.856 10.004,0c2.852,2.86 2.852,7.143 0,10.003l-21.43,21.429c-1.43,1.427 -2.86,2.142 -5.002,2.142" fill="#014463"/>
    <path d="m241.57,63.143c-2.141,0 -3.57,-0.715 -5,-2.142c-2.854,-2.86 -2.854,-7.143 0,-10.003l21.428,-21.429c2.859,-2.856 7.143,-2.856 10.002,0c2.854,2.86 2.854,7.143 0,10.003l-21.428,21.429c-1.429,1.427 -2.859,2.142 -5.002,2.142" fill="#014463"/>
    <path d="m288,106l-100,0c-5.713,0 -10.715,5.001 -10.715,10.714s5.002,10.715 10.715,10.715l100,0c5.713,0 10.713,-5.002 10.713,-10.715s-5,-10.714 -10.713,-10.714" fill="#EF3E2B"/>
    <path d="m288,141.714l-100,0c-13.574,0 -25,-11.426 -25,-25c0,-13.57 11.426,-25 25,-25l100,0c13.574,0 25,11.429 25,25c0,13.574 -11.426,25 -25,25m-100,-35.714c-5.713,0 -10.715,5.001 -10.715,10.714s5.002,10.715 10.715,10.715l100,0c5.713,0 10.713,-5.002 10.713,-10.715s-5,-10.714 -10.713,-10.714l-100,0z" fill="#004463"/>
    <path d="m178.004,120.286c1.422,4.282 5.713,7.143 9.996,7.143l100,0c5,0 8.572,-2.86 10.002,-7.143l-119.998,0z" fill="#EA8389"/>
    <path d="m28,120.286c1.431,4.282 5.713,7.143 10,7.143l114.285,0c5.002,0 8.573,-2.86 10,-7.143l-134.285,0z" fill="#EA8389"/>
    <path d="m262.281,151.71c11.432,7.143 25.719,5.002 35.715,-4.994c0.717,-0.719 0.717,-1.43 0.717,-2.148c0,-1.423 -1.43,-2.854 -2.859,-2.854l-265.712,0c-1.43,0 -2.856,1.431 -2.856,2.854c0,0.719 0,1.43 0.715,2.148c10,9.996 24.285,12.137 35.715,4.994c8.569,-4.994 18.568,-4.994 27.142,0c9.284,5.72 20.713,5.72 30.001,0c8.569,-4.994 18.569,-4.994 27.142,0c9.284,5.72 20.714,5.72 29.997,0c8.574,-4.994 18.576,-4.994 27.143,0c9.291,5.72 20.717,5.72 30,0c4.291,-2.853 8.574,-4.283 13.574,-4.283c5,0 9.283,1.43 13.566,4.283" fill="#FFFCD5"/>
    <path d="m277.285,170.286c-7.854,0 -15.715,-2.142 -22.859,-6.432c-3.57,-2.142 -8.572,-2.142 -12.143,0c-13.568,8.572 -31.426,8.572 -45,0c-3.57,-2.142 -8.572,-2.142 -12.145,0c-13.566,8.572 -31.423,8.572 -44.998,0c-3.571,-2.142 -8.569,-2.142 -12.141,0c-13.571,8.572 -31.428,8.572 -45.002,0c-3.571,-2.142 -8.569,-2.142 -12.141,0c-6.428,4.29 -14.286,6.432 -22.144,6.432c-11.429,0 -22.144,-5.002 -30.713,-13.574c-2.86,-2.854 -5.001,-7.144 -5.001,-12.145c0,-9.284 7.857,-17.139 17.142,-17.139l265.001,0c9.283,0 17.145,7.854 17.145,17.139c0,4.29 -1.43,8.572 -5,12.145c-7.86,8.572 -18.575,13.574 -30.001,13.574m-28.572,-22.859c5.002,0 9.285,1.431 13.574,4.283c11.426,7.143 25.713,5.002 35.715,-4.994c0.711,-0.719 0.711,-1.43 0.711,-2.148c0,-1.423 -1.43,-2.854 -2.859,-2.854l-265.712,0c-1.426,0 -2.856,1.431 -2.856,2.854c0,0.719 0,1.43 0.715,2.148c10,9.996 24.285,12.137 35.715,4.994c8.569,-4.994 18.572,-4.994 27.142,0c9.288,5.72 20.713,5.72 30.001,0c8.569,-4.994 18.572,-4.994 27.142,0c9.288,5.72 20.714,5.72 29.997,0c8.574,-4.994 18.576,-4.994 27.148,0c9.285,5.72 20.711,5.72 29.994,0c4.29,-2.853 8.573,-4.283 13.573,-4.283" fill="#014463"/>
   </g>
  </symbol>
  <symbol height="310px" id="svg_14" viewBox="0 0 271 310" width="271px" x="0px" xmlns="http://www.w3.org/2000/svg" xmlns:xlink="http://www.w3.org/1999/xlink" y="0px">
   <g id="svg_13">
    <path d="m162.457,133.545c-3.408,-26.59 -26.59,-47.727 -53.863,-47.727c-27.272,0 -50.454,21.137 -53.863,47.727l107.726,0z" fill="#FFE37B"/>
    <path d="m108.594,72.182c-37.5,0 -68.182,30.682 -68.182,68.182c0,4.091 2.727,6.818 6.818,6.818l122.725,0c4.095,0 6.818,-2.727 6.818,-6.818c0,-37.5 -30.682,-68.182 -68.179,-68.182m-11.592,61.363c2.048,-4.091 6.818,-6.818 11.592,-6.818c4.771,0 9.545,2.727 11.589,6.818l-23.181,0zm38.183,0c-2.727,-11.592 -13.636,-20.455 -26.59,-20.455c-12.954,0 -23.181,8.862 -26.59,20.455l-6.818,0c3.409,-15.68 17.045,-27.273 33.408,-27.273s30,11.593 33.409,27.273l-6.819,0zm20.454,0c-3.408,-23.181 -23.181,-40.909 -47.044,-40.909s-43.636,17.728 -47.044,40.909l-6.818,0c3.409,-26.59 26.59,-47.727 53.863,-47.727c27.273,0 50.455,21.137 53.863,47.727l-6.82,0z" fill="#004463"/>
    <path d="m47.913,140.364l17.728,143.861c0.683,3.409 3.409,6.139 6.818,6.139l126.132,0c3.41,0 6.14,-2.729 6.818,-6.139l18.411,-143.861l-175.907,0z" fill="#ECEFF9"/>
    <path d="m198.592,304l-125.45,0c-10.227,0 -19.093,-7.497 -20.454,-17.725l-19.094,-152.047c0,-2.047 0.683,-4.092 1.365,-5.457c1.361,-1.362 3.409,-2.044 5.453,-2.044l190.913,0c2.044,0 4.088,0.682 4.767,2.044c1.365,1.365 2.051,3.409 1.365,5.457l-19.09,151.362c-0.679,10.913 -9.548,18.41 -19.775,18.41m-150.679,-163.636l17.728,143.861c0.683,3.409 3.409,6.139 6.818,6.139l126.132,0c3.41,0 6.14,-2.729 6.818,-6.139l18.411,-143.861l-175.907,0z" fill="#014463"/>
    <path d="m258.598,188.091c-2.051,0 -4.773,-1.365 -6.139,-3.409l-27.273,-47.727c-2.044,-3.409 -0.679,-7.5 2.73,-9.545c3.409,-2.047 7.497,-0.682 9.541,2.727l27.273,47.727c2.044,3.409 0.686,7.498 -2.724,9.549c-1.364,0.678 -2.05,0.678 -3.408,0.678" fill="#014463"/>
    <path d="m13.14,188.091c-1.365,0 -2.044,0 -3.409,-0.679c-3.409,-2.051 -4.091,-6.14 -2.727,-9.549l27.273,-47.727c2.044,-3.409 6.136,-4.091 9.545,-2.727c3.409,2.044 4.091,6.136 2.727,9.545l-27.273,47.727c-1.362,2.045 -4.092,3.41 -6.136,3.41" fill="#014463"/>
    <path d="m135.867,215.363c7.527,0 13.64,6.113 13.64,13.637s-6.112,13.637 -13.64,13.637s-13.637,-6.114 -13.637,-13.637s6.11,-13.637 13.637,-13.637" fill="#F04D4E"/>
    <path d="m135.867,256.272c-15.001,0 -27.273,-12.271 -27.273,-27.272s12.271,-27.272 27.273,-27.272c14.998,0 27.275,12.271 27.275,27.272s-12.277,27.272 -27.275,27.272m0,-40.909c-7.501,0 -13.637,6.14 -13.637,13.637s6.136,13.637 13.637,13.637c7.5,0 13.64,-6.14 13.64,-13.637s-6.14,-13.637 -13.64,-13.637" fill="#004463"/>
    <path d="m190.416,235.818l-13.637,0c-4.095,0 -6.818,-2.73 -6.818,-6.818s2.724,-6.818 6.818,-6.818l13.637,0c4.088,0 6.818,2.73 6.818,6.818s-2.73,6.818 -6.818,6.818" fill="#014463"/>
    <path d="m94.958,235.818l-13.636,0c-4.092,0 -6.818,-2.73 -6.818,-6.818s2.727,-6.818 6.818,-6.818l13.636,0c4.092,0 6.818,2.73 6.818,6.818s-2.726,6.818 -6.818,6.818" fill="#014463"/>
    <path d="m223.821,140.364l-15.681,0l-160.227,0l2.044,15.68l17.729,24.55c6.135,8.862 17.045,14.315 27.955,14.315l94.769,0c6.14,0 10.913,4.774 10.228,10.906l-8.862,72.276c-0.68,3.409 -3.409,6.133 -6.818,6.133l-118.638,0l0,0.686c0.683,3.409 3.409,6.133 6.818,6.133l126.14,0c3.409,0 6.132,-2.724 6.818,-6.133l17.725,-144.546z" fill="#84A1C1"/>
    <path d="m53.366,140.364l18.411,25.228c4.088,5.453 10.227,8.863 16.363,8.863l94.772,0c6.818,0 12.957,-3.41 16.366,-8.863l18.403,-25.228l-164.315,0z" fill="#ECEFF9"/>
    <path d="m182.912,188.091l-94.09,0c-10.91,0 -21.137,-5.453 -27.955,-14.315l-25.911,-36.138c-1.362,-2.047 -1.362,-4.774 -0.679,-6.818c0.679,-2.047 3.409,-4.091 6.136,-4.091l190.906,0c2.73,0 4.773,1.365 6.139,3.409c1.365,2.044 0.68,4.774 -0.679,6.818l-25.915,36.821c-6.133,8.861 -16.36,14.314 -27.952,14.314m-129.546,-47.727l18.411,25.228c4.088,5.453 10.227,8.863 16.363,8.863l94.772,0c6.818,0 12.957,-3.41 16.366,-8.863l18.403,-25.228l-164.315,0z" fill="#014463"/>
    <polygon fill="#FFFFFF" points="58.823,147.182 212.914,147.182 218.367,140.364 53.37,140.364  "/>
    <path d="m129.049,126.728l-13.636,-116.592c-0.683,-3.409 -4.092,-6.136 -7.501,-6.136c-3.409,0.683 -6.136,4.092 -6.136,7.5l13.636,115.227l13.637,0l0,0.001z" fill="#014463"/>
    <path d="m86.096,126.728l14.319,0l-32.729,-104.318c-1.362,-3.409 -4.771,-5.456 -8.862,-4.774c-3.409,1.365 -5.454,5.454 -4.774,8.862l32.046,100.23z" fill="#014463"/>
    <path d="m217.003,126.728c-3.409,-26.591 -26.594,-47.728 -53.866,-47.728c-27.27,0 -50.451,21.137 -53.86,47.728l107.726,0z" fill="#FFE37B"/>
    <path d="m163.137,65.364c-37.497,0 -68.179,30.682 -68.179,68.182c0,4.092 2.727,6.818 6.818,6.818l122.724,0c4.095,0 6.818,-2.727 6.818,-6.818c0,-37.501 -30.681,-68.182 -68.181,-68.182m-11.586,61.364c2.044,-4.092 6.818,-6.818 11.586,-6.818c4.773,0 9.548,2.727 11.592,6.818l-23.178,0zm38.179,0c-2.73,-11.593 -13.637,-20.455 -26.594,-20.455c-12.951,0 -23.178,8.862 -26.587,20.455l-6.818,0c3.409,-15.681 17.046,-27.273 33.405,-27.273c16.366,0 30.002,11.592 33.412,27.273l-6.818,0zm20.455,0c-3.409,-23.182 -23.185,-40.909 -47.048,-40.909s-43.633,17.728 -47.042,40.909l-6.818,0c3.409,-26.59 26.59,-47.728 53.86,-47.728c27.272,0 50.457,21.137 53.866,47.728l-6.818,0z" fill="#004463"/>
   </g>
  </symbol>
 </defs>
 <g class="layer">
  <title>Layer 1</title>
  <use id="svg_5" transform="matrix(1.31959 0 0 1.31959 -206.044 -152.396)" x="264.890567" xlink:href="#svg_4" y="115.44531"/>
  <g id="svg_6"/>
  <use id="svg_10" transform="rotate(6.24615 471.754 360.68) matrix(1.0158 0 0 1.0158 -261.288 71.1112)" x="558.642427" xlink:href="#svg_9" y="179.065813"/>
  <g id="svg_11"/>
  <use id="svg_15" transform="rotate(-5.95735 150.243 332.448) matrix(0.898882 0 0 0.898882 -70.812 -326.268)" x="109.903599" xlink:href="#svg_14" y="578.817546"/>
  <g id="svg_16"/>
 </g>
</svg>